<svg xmlns="http://www.w3.org/2000/svg" viewBox="0 0 2500 2500"><path fill="#26A17B" d="M1250 2500c690.35 0 1250-559.65 1250-1250S1940.35 0 1250 0 0 559.65 0 1250s559.65 1250 1250 1250z"/><path fill="#FFF" d="M1362.38 1111.96v-274.02h389.7v-320.87H747.92v320.87h389.7v274.02c-350.59 13.92-591.96 94.63-591.96 190.63 0 97.47 251.26 179.05 601.81 191.66v270.82h214.9v-270.82c350.56-12.61 601.82-94.18 601.82-191.66 0-96-241.37-176.71-591.81-190.63h0zm-112.38 302.26c-310.83 0-569.26-49.96-569.26-111.46 0-61.5 258.43-111.46 569.26-111.46s569.26 49.96 569.26 111.46c0 61.5-258.43 111.46-569.26 111.46z"/></svg>
